<svg xmlns="http://www.w3.org/2000/svg" xmlns:xlink="http://www.w3.org/1999/xlink" id="Layer_1" x="0px" y="0px" width="100%" viewBox="0 0 512 512" xml:space="preserve"><path fill="#194071" opacity="1.000000" stroke="none" d="M513.000000,132.000000  C513.000000,214.354233 513.000000,296.708466 512.594360,379.560059  C511.814270,380.736755 511.174194,381.389984 511.104553,382.099243  C509.675201,396.658600 506.345093,410.742615 501.044891,424.393738  C489.098419,455.162872 468.568939,478.343903 439.449829,493.751862  C419.115723,504.511383 397.226288,509.825104 374.296692,511.095764  C373.166077,511.158417 372.097473,512.339600 371.000000,513.000000  C295.645782,513.000000 220.291550,513.000000 144.431183,512.587891  C143.074493,511.797638 142.254089,511.195618 141.368698,511.076477  C133.353806,509.997955 125.059807,509.952179 117.362762,507.779083  C103.246567,503.793671 89.006607,499.611938 75.699677,493.570587  C61.969009,487.336884 50.707771,477.130646 40.307293,465.993378  C26.537073,451.247711 17.171515,434.149811 11.282831,415.097168  C5.478087,396.316193 2.787745,377.004028 2.905704,357.308441  C2.914282,355.876160 1.664651,354.436310 1.000001,353.000000  C1.000000,289.979095 1.000000,226.958206 1.414619,163.424438  C2.218101,161.393890 2.840282,159.894028 2.957736,158.355621  C3.687395,148.798599 3.972029,139.196182 5.025926,129.677658  C7.322912,108.931808 13.011645,89.148903 23.538445,70.999748  C37.121807,47.580799 55.952934,29.533978 80.494164,18.005865  C99.499275,9.078313 119.660980,4.061754 140.718124,2.904213  C141.843567,2.842345 142.907455,1.660482 144.000000,0.999998  C219.020889,1.000000 294.041779,1.000000 369.566528,1.413342  C371.088409,2.210578 372.092651,2.885792 373.126526,2.934769  C389.255219,3.698828 404.885132,6.885476 420.230072,11.892862  C444.103973,19.683430 463.855347,33.669872 479.859131,52.613300  C496.818237,72.687561 505.756775,96.591469 510.073273,122.352310  C510.624054,125.639381 512.004150,128.787506 513.000000,132.000000 M292.500000,47.999794  C254.210754,48.332027 215.917099,48.420849 177.634415,49.114964  C162.078995,49.397003 146.440811,50.185040 131.033600,52.212082  C113.983231,54.455307 98.295990,60.561909 84.519142,71.715332  C67.484230,85.506409 57.527157,103.297478 54.219059,124.310913  C51.269016,143.049942 49.366436,162.147369 49.243156,181.101242  C48.887905,235.720108 49.397621,290.350159 50.169861,344.967285  C50.386730,360.305542 51.347309,375.877014 54.298397,390.882996  C60.803234,423.959290 80.143272,446.772919 112.470779,458.034851  C131.585220,464.693756 151.540192,465.036011 171.320953,465.820312  C197.582169,466.861633 223.891846,466.766876 250.182159,466.937134  C258.470062,466.990845 266.760010,466.148743 275.053589,466.025177  C303.010498,465.608612 330.979858,465.674774 358.922729,464.834229  C370.434692,464.487976 382.130524,463.345184 393.329376,460.768311  C429.580261,452.426788 452.471863,429.807434 461.582794,393.663757  C466.315857,374.887421 466.586060,355.558228 466.847717,336.390320  C467.364075,298.566254 467.242249,260.728088 466.915771,222.899811  C466.690582,196.810379 465.712860,170.726791 465.003021,144.642456  C464.634766,131.109497 461.779358,118.009338 456.650208,105.552429  C445.752411,79.085609 425.921570,62.737820 398.549286,54.889187  C375.244843,48.206951 351.230408,49.664837 327.489868,48.125862  C316.204620,47.394295 304.832672,47.999916 292.500000,47.999794 z"></path><path fill="#F2F7FF" opacity="1.000000" stroke="none" d="M143.531342,0.999998  C142.907455,1.660482 141.843567,2.842345 140.718124,2.904213  C119.660980,4.061754 99.499275,9.078313 80.494164,18.005865  C55.952934,29.533978 37.121807,47.580799 23.538445,70.999748  C13.011645,89.148903 7.322912,108.931808 5.025926,129.677658  C3.972029,139.196182 3.687395,148.798599 2.957736,158.355621  C2.840282,159.894028 2.218101,161.393890 1.414619,162.955780  C1.000000,109.077545 1.000000,55.155087 1.000000,1.000000  C48.353973,1.000000 95.708328,1.000000 143.531342,0.999998 z"></path><path fill="#F2F7FF" opacity="1.000000" stroke="none" d="M1.000001,353.468658  C1.664651,354.436310 2.914282,355.876160 2.905704,357.308441  C2.787745,377.004028 5.478087,396.316193 11.282831,415.097168  C17.171515,434.149811 26.537073,451.247711 40.307293,465.993378  C50.707771,477.130646 61.969009,487.336884 75.699677,493.570587  C89.006607,499.611938 103.246567,503.793671 117.362762,507.779083  C125.059807,509.952179 133.353806,509.997955 141.368698,511.076477  C142.254089,511.195618 143.074493,511.797638 143.962524,512.587891  C96.402245,513.000000 48.804485,513.000000 1.000000,513.000000  C1.000000,459.979279 1.000000,406.958313 1.000001,353.468658 z"></path><path fill="#F2F7FF" opacity="1.000000" stroke="none" d="M371.468628,513.000000  C372.097473,512.339600 373.166077,511.158417 374.296692,511.095764  C397.226288,509.825104 419.115723,504.511383 439.449829,493.751862  C468.568939,478.343903 489.098419,455.162872 501.044891,424.393738  C506.345093,410.742615 509.675201,396.658600 511.104553,382.099243  C511.174194,381.389984 511.814270,380.736755 512.594360,380.028687  C513.000000,424.262695 513.000000,468.525391 513.000000,513.000000  C465.979309,513.000000 418.958313,513.000000 371.468628,513.000000 z"></path><path fill="#F2F7FF" opacity="1.000000" stroke="none" d="M513.000000,131.531342  C512.004150,128.787506 510.624054,125.639381 510.073273,122.352310  C505.756775,96.591469 496.818237,72.687561 479.859131,52.613300  C463.855347,33.669872 444.103973,19.683430 420.230072,11.892862  C404.885132,6.885476 389.255219,3.698828 373.126526,2.934769  C372.092651,2.885792 371.088409,2.210578 370.035217,1.413342  C417.590454,1.000000 465.180908,1.000000 513.000000,1.000000  C513.000000,44.353958 513.000000,87.708321 513.000000,131.531342 z"></path><path fill="#F2F7FF" opacity="1.000000" stroke="none" d="M293.000000,47.999790  C304.832672,47.999916 316.204620,47.394295 327.489868,48.125862  C351.230408,49.664837 375.244843,48.206951 398.549286,54.889187  C425.921570,62.737820 445.752411,79.085609 456.650208,105.552429  C461.779358,118.009338 464.634766,131.109497 465.003021,144.642456  C465.712860,170.726791 466.690582,196.810379 466.915771,222.899811  C467.242249,260.728088 467.364075,298.566254 466.847717,336.390320  C466.586060,355.558228 466.315857,374.887421 461.582794,393.663757  C452.471863,429.807434 429.580261,452.426788 393.329376,460.768311  C382.130524,463.345184 370.434692,464.487976 358.922729,464.834229  C330.979858,465.674774 303.010498,465.608612 275.053589,466.025177  C266.760010,466.148743 258.470062,466.990845 250.182159,466.937134  C223.891846,466.766876 197.582169,466.861633 171.320953,465.820312  C151.540192,465.036011 131.585220,464.693756 112.470779,458.034851  C80.143272,446.772919 60.803234,423.959290 54.298397,390.882996  C51.347309,375.877014 50.386730,360.305542 50.169861,344.967285  C49.397621,290.350159 48.887905,235.720108 49.243156,181.101242  C49.366436,162.147369 51.269016,143.049942 54.219059,124.310913  C57.527157,103.297478 67.484230,85.506409 84.519142,71.715332  C98.295990,60.561909 113.983231,54.455307 131.033600,52.212082  C146.440811,50.185040 162.078995,49.397003 177.634415,49.114964  C215.917099,48.420849 254.210754,48.332027 293.000000,47.999790 M140.174347,317.216492  C145.320389,324.908447 149.991501,332.975037 155.705811,340.218719  C170.071808,358.429626 188.301178,371.675354 209.951721,380.050079  C232.698212,388.848755 256.071808,391.148163 280.209198,387.110779  C304.393494,383.065491 325.678741,372.914276 344.165894,357.160461  C359.111572,344.424500 370.716248,328.901794 378.614868,310.785583  C389.788635,285.157684 393.023315,258.557648 387.442688,231.154251  C381.133057,200.170898 365.717041,174.480072 341.042633,154.552444  C311.211945,130.460480 277.028564,121.457176 239.246872,126.243141  C222.861420,128.318756 207.381927,133.839081 192.999237,142.040771  C171.334656,154.394943 154.249298,171.395172 142.327347,193.365723  C133.792267,209.094727 127.555565,225.681473 126.979965,243.761719  C126.613022,255.288040 125.926834,267.124939 128.030991,278.325287  C130.476212,291.341125 135.815933,303.813171 140.174347,317.216492 M415.975922,143.514893  C425.253906,133.639847 428.763062,122.278625 423.872437,109.294411  C419.216095,96.932121 409.668457,90.139832 396.736725,89.165672  C378.746307,87.810455 363.087677,101.923615 363.638794,121.675209  C364.056335,136.640015 376.164001,148.579193 387.354370,150.576675  C397.537994,152.394440 407.163391,150.801880 415.975922,143.514893 z"></path><path fill="#194071" opacity="1.000000" stroke="none" d="M140.036865,316.868866  C135.815933,303.813171 130.476212,291.341125 128.030991,278.325287  C125.926834,267.124939 126.613022,255.288040 126.979965,243.761719  C127.555565,225.681473 133.792267,209.094727 142.327347,193.365723  C154.249298,171.395172 171.334656,154.394943 192.999237,142.040771  C207.381927,133.839081 222.861420,128.318756 239.246872,126.243141  C277.028564,121.457176 311.211945,130.460480 341.042633,154.552444  C365.717041,174.480072 381.133057,200.170898 387.442688,231.154251  C393.023315,258.557648 389.788635,285.157684 378.614868,310.785583  C370.716248,328.901794 359.111572,344.424500 344.165894,357.160461  C325.678741,372.914276 304.393494,383.065491 280.209198,387.110779  C256.071808,391.148163 232.698212,388.848755 209.951721,380.050079  C188.301178,371.675354 170.071808,358.429626 155.705811,340.218719  C149.991501,332.975037 145.320389,324.908447 140.036865,316.868866 M210.496368,327.031555  C214.181824,329.266449 217.673508,331.943665 221.587021,333.657959  C236.687515,340.272675 252.277390,343.568359 268.961395,341.101074  C291.367645,337.787537 309.890991,327.543121 323.853668,310.033997  C338.218201,292.020966 344.770630,271.310577 342.103241,247.925125  C340.102142,230.381317 333.688507,214.731277 322.031311,201.755829  C302.432129,179.940216 277.869232,169.768143 248.263596,172.963959  C231.082169,174.818649 215.717850,181.352905 203.010345,192.739975  C180.934311,212.522141 170.316772,237.197388 173.928268,267.295929  C176.960800,292.569305 189.526978,311.927246 210.496368,327.031555 z"></path><path fill="#194071" opacity="1.000000" stroke="none" d="M415.714661,143.763489  C407.163391,150.801880 397.537994,152.394440 387.354370,150.576675  C376.164001,148.579193 364.056335,136.640015 363.638794,121.675209  C363.087677,101.923615 378.746307,87.810455 396.736725,89.165672  C409.668457,90.139832 419.216095,96.932121 423.872437,109.294411  C428.763062,122.278625 425.253906,133.639847 415.714661,143.763489 z"></path><path fill="#F2F7FF" opacity="1.000000" stroke="none" d="M210.207031,326.816467  C189.526978,311.927246 176.960800,292.569305 173.928268,267.295929  C170.316772,237.197388 180.934311,212.522141 203.010345,192.739975  C215.717850,181.352905 231.082169,174.818649 248.263596,172.963959  C277.869232,169.768143 302.432129,179.940216 322.031311,201.755829  C333.688507,214.731277 340.102142,230.381317 342.103241,247.925125  C344.770630,271.310577 338.218201,292.020966 323.853668,310.033997  C309.890991,327.543121 291.367645,337.787537 268.961395,341.101074  C252.277390,343.568359 236.687515,340.272675 221.587021,333.657959  C217.673508,331.943665 214.181824,329.266449 210.207031,326.816467 z"></path></svg>