<svg xmlns="http://www.w3.org/2000/svg" xmlns:xlink="http://www.w3.org/1999/xlink" id="Layer_1" x="0px" y="0px" width="100%" viewBox="0 0 512 512" xml:space="preserve"><path fill="#F2F7FF" opacity="1.000000" stroke="none" d="M286.000000,513.000000  C190.689804,513.000000 95.879608,513.000000 1.034703,513.000000  C1.034703,342.398102 1.034703,171.796219 1.034703,1.097158  C171.560211,1.097158 342.120514,1.097158 512.840393,1.097158  C512.840393,171.666550 512.840393,342.333252 512.840393,513.000000  C437.462860,513.000000 361.981415,513.000000 286.000000,513.000000 M22.975136,389.557495  C23.848269,394.432190 24.368904,399.401947 25.653944,404.165527  C32.131111,428.176239 44.577370,448.341034 63.802441,464.453430  C85.240532,482.420563 109.791168,491.834351 137.590836,491.916870  C217.255127,492.153259 296.920624,492.020844 376.585541,491.953186  C381.874817,491.948669 387.241730,491.726746 392.439545,490.832886  C421.580658,485.821747 446.067230,472.591675 465.056549,449.537872  C482.687500,428.133087 491.889008,403.660492 491.946472,375.999664  C492.103027,300.668243 492.033173,225.336258 491.956757,150.004578  C491.947845,141.214020 491.703186,132.391174 490.919342,123.641396  C489.678741,109.793373 485.182098,96.730034 478.693573,84.582176  C471.393066,70.914032 461.744781,59.011421 449.650940,48.994434  C429.537842,32.335365 406.504395,22.437469 380.641479,22.236490  C298.481476,21.598022 216.311798,21.750792 134.150375,22.288916  C122.803368,22.363232 111.109642,25.194597 100.225731,28.741831  C77.223351,36.238678 58.775749,50.577702 44.405964,70.089294  C30.662233,88.750809 22.390230,109.805603 22.229078,132.792099  C21.648405,215.619614 21.993095,298.453674 22.039917,381.285248  C22.041306,383.742584 22.617222,386.199615 22.975136,389.557495 z"></path><path fill="#194071" opacity="1.000000" stroke="none" d="M22.950203,389.107117  C22.617222,386.199615 22.041306,383.742584 22.039917,381.285248  C21.993095,298.453674 21.648405,215.619614 22.229078,132.792099  C22.390230,109.805603 30.662233,88.750809 44.405964,70.089294  C58.775749,50.577702 77.223351,36.238678 100.225731,28.741831  C111.109642,25.194597 122.803368,22.363232 134.150375,22.288916  C216.311798,21.750792 298.481476,21.598022 380.641479,22.236490  C406.504395,22.437469 429.537842,32.335365 449.650940,48.994434  C461.744781,59.011421 471.393066,70.914032 478.693573,84.582176  C485.182098,96.730034 489.678741,109.793373 490.919342,123.641396  C491.703186,132.391174 491.947845,141.214020 491.956757,150.004578  C492.033173,225.336258 492.103027,300.668243 491.946472,375.999664  C491.889008,403.660492 482.687500,428.133087 465.056549,449.537872  C446.067230,472.591675 421.580658,485.821747 392.439545,490.832886  C387.241730,491.726746 381.874817,491.948669 376.585541,491.953186  C296.920624,492.020844 217.255127,492.153259 137.590836,491.916870  C109.791168,491.834351 85.240532,482.420563 63.802441,464.453430  C44.577370,448.341034 32.131111,428.176239 25.653944,404.165527  C24.368904,399.401947 23.848269,394.432190 22.950203,389.107117 M199.670547,143.119751  C183.202896,152.061249 168.733292,163.281525 157.056931,178.196060  C134.677246,206.782242 126.364464,239.077698 131.013641,274.741943  C134.997284,305.300934 149.049316,330.627655 171.849426,351.429688  C188.822769,366.915558 208.465622,376.841827 230.701996,381.678894  C250.047638,385.887146 269.580200,385.570160 288.662781,380.488373  C313.520203,373.868805 334.752197,361.078522 352.052826,341.619843  C370.178345,321.233368 381.015625,297.551331 383.708649,270.755249  C386.467377,243.304932 381.413025,217.028519 367.005859,192.861618  C354.275879,171.508087 337.135620,154.966125 315.115448,143.648682  C295.507599,133.571045 274.651093,129.098267 252.444443,129.839890  C234.015457,130.455353 216.859222,135.038010 199.670547,143.119751 M386.388336,170.998825  C412.386230,170.655563 432.323669,144.711197 425.853607,119.263786  C421.812866,103.371017 411.645233,92.860962 395.834686,88.452316  C380.914642,84.291985 367.471039,88.100060 356.238525,98.408630  C343.106812,110.460167 339.505615,128.669281 346.262299,145.411713  C352.346710,160.488312 368.551300,171.444702 386.388336,170.998825 z"></path><path fill="#F2F7FF" opacity="1.000000" stroke="none" d="M200.023438,142.993866  C216.859222,135.038010 234.015457,130.455353 252.444443,129.839890  C274.651093,129.098267 295.507599,133.571045 315.115448,143.648682  C337.135620,154.966125 354.275879,171.508087 367.005859,192.861618  C381.413025,217.028519 386.467377,243.304932 383.708649,270.755249  C381.015625,297.551331 370.178345,321.233368 352.052826,341.619843  C334.752197,361.078522 313.520203,373.868805 288.662781,380.488373  C269.580200,385.570160 250.047638,385.887146 230.701996,381.678894  C208.465622,376.841827 188.822769,366.915558 171.849426,351.429688  C149.049316,330.627655 134.997284,305.300934 131.013641,274.741943  C126.364464,239.077698 134.677246,206.782242 157.056931,178.196060  C168.733292,163.281525 183.202896,152.061249 200.023438,142.993866 M201.672318,322.876617  C202.109207,323.112335 202.598907,323.283752 202.975433,323.592987  C222.858566,339.922333 245.803925,345.619659 270.858002,341.708099  C292.582550,338.316376 310.623749,327.829193 324.308380,310.252594  C339.929413,290.188873 345.714783,267.510468 341.603760,242.607651  C338.043243,221.039597 327.576324,203.209122 310.169128,189.620377  C290.104218,173.956894 267.396027,168.309372 242.498611,172.424484  C220.937622,175.988159 203.125290,186.452713 189.586227,203.872849  C173.870468,224.093704 168.355728,246.870224 172.527252,272.005280  C175.888947,292.260773 185.904175,308.855682 201.672318,322.876617 z"></path><path fill="#F2F7FF" opacity="1.000000" stroke="none" d="M385.924866,170.999130  C368.551300,171.444702 352.346710,160.488312 346.262299,145.411713  C339.505615,128.669281 343.106812,110.460167 356.238525,98.408630  C367.471039,88.100060 380.914642,84.291985 395.834686,88.452316  C411.645233,92.860962 421.812866,103.371017 425.853607,119.263786  C432.323669,144.711197 412.386230,170.655563 385.924866,170.999130 z"></path><path fill="#194071" opacity="1.000000" stroke="none" d="M201.374115,322.680084  C185.904175,308.855682 175.888947,292.260773 172.527252,272.005280  C168.355728,246.870224 173.870468,224.093704 189.586227,203.872849  C203.125290,186.452713 220.937622,175.988159 242.498611,172.424484  C267.396027,168.309372 290.104218,173.956894 310.169128,189.620377  C327.576324,203.209122 338.043243,221.039597 341.603760,242.607651  C345.714783,267.510468 339.929413,290.188873 324.308380,310.252594  C310.623749,327.829193 292.582550,338.316376 270.858002,341.708099  C245.803925,345.619659 222.858566,339.922333 202.975433,323.592987  C202.598907,323.283752 202.109207,323.112335 201.374115,322.680084 z"></path></svg>